<svg width="24.000000" height="44.470589" viewBox="0 0 24 44.4706" fill="none" xmlns="http://www.w3.org/2000/svg" xmlns:xlink="http://www.w3.org/1999/xlink">
	<desc>
			Created with Pixso.
	</desc>
	<defs>
		<clipPath id="clip134_246">
			<rect id="ChevronRight" width="24.000000" height="44.470589" fill="white" fill-opacity="0"/>
		</clipPath>
		<clipPath id="clip134_245">
			<rect id="carousel-control-next" width="24.000000" height="44.470589" fill="white" fill-opacity="0"/>
		</clipPath>
	</defs>
	<g clip-path="url(#clip134_245)">
		<rect id="ChevronRight" width="24.000000" height="44.470589" fill="#FFFFFF" fill-opacity="0"/>
		<g clip-path="url(#clip134_246)">
			<path id="Vector" d="M0.56 0.69C0.72 0.54 0.91 0.41 1.11 0.32C1.32 0.24 1.54 0.2 1.77 0.2C1.99 0.2 2.21 0.24 2.42 0.32C2.63 0.41 2.82 0.54 2.97 0.69L23.43 21.03C23.59 21.19 23.71 21.37 23.8 21.58C23.89 21.79 23.93 22.01 23.93 22.23C23.93 22.45 23.89 22.67 23.8 22.88C23.71 23.09 23.59 23.27 23.43 23.43L2.97 43.77C2.65 44.09 2.22 44.26 1.77 44.26C1.32 44.26 0.88 44.09 0.56 43.77C0.24 43.45 0.06 43.02 0.06 42.57C0.06 42.12 0.24 41.69 0.56 41.37L19.81 22.23L0.56 3.09C0.4 2.94 0.28 2.75 0.19 2.54C0.1 2.34 0.06 2.12 0.06 1.89C0.06 1.67 0.1 1.45 0.19 1.24C0.28 1.04 0.4 0.85 0.56 0.69Z" fill="#FFFFFF" fill-opacity="1.000000" fill-rule="evenodd"/>
		</g>
	</g>
</svg>
